<?xml version="1.0" encoding="utf-8"?>
<svg version="1.2" baseProfile="tiny-ps" viewBox="0 0 300 300" xmlns="http://www.w3.org/2000/svg" xmlns:xlink="http://www.w3.org/1999/xlink">
<title>Pona Ekolo</title>
<g><g fill="#fff" transform="matrix(.1 0 0 -.1 0 300)">
<path d="M0 1500V0h3000v3000H0V1500z"/></g>
<g fill="#d5d5d5" transform="matrix(.1 0 0 -.1 0 300)">
<path d="M500 1930v-120h70v-169l78-4 77-3-90-2-90-2v-260h135v60h-30v40l28-1 27-2-22-4c-26-5-31-23-7-23h15l-3-37-3-38-57-3-58-3v-169h-70V950h610v240H970v84c0 46-3 91-6 100l-6 16-28-15-29-15-38 1-38 2 49 6 49 7 23 28 24 27v30c0 17-7 43-15 59l-15 30-28 6c-44 9-49 12-22 13l26 1 21-15 21-15 6 15 6 15 75-2c41-1 72-4 70-7-3-3-37-4-75-3l-70 3v-61h20v-70h-20v-59h219l7 10 6 10 11-9 12-10 84-1 84-1-7 47c-3 25-6 58-6 72 0 15-6 35-13 45l-13 18-34 8-35 8 28 1 28 1 24-25 25-24v-61h10c13 0 69 78 76 107l6 22 14-14 14-14v-131h-21l3-27 3-28 163-2 162-2v64l20-32 20-33h80v30c0 17-3 30-8 30-4 0-13 10-21 22l-14 22 22 17 21 17v52h-78l-21-32-21-33v135h-325v195l-23 50c-41 89-110 140-220 164l-53 11H500v-120zm576-141 19-21v-140l-24-19-23-19h-78v220h87l19-21zm-312-181c9-12 16-31 16-41v-19l18 7c9 4 28 9 42 11l25 4-32-10-32-10-16-22-15-22v-87l25-24c13-14 20-25 15-25s-18 12-29 26l-21 27v57l-27-5-28-5 15 6c8 4 23 13 33 22l17 15v77l-20 20c-11 11-16 20-11 20 6 0 17-10 25-22zm976-109v-69h-20v50h-80v-50h-30v50h30v50h-30v40h30v-40h80v51l10-6 10-6v-70zm-1070 51v-20h-20v40h20v-20zm509-11 19-32 5 29 4 29 2-37 1-38 48 5 47 5-39-13-39-13-17-22c-26-32-30-28-30 26v48l-12 16c-7 9-20 18-28 21l-15 5 18 1 17 1 19-31zm89 24c-10-2-26-2-35 0l-18 5h70l-17-5zm-388-99v-36l-12 4c-24 8-22 68 2 68h10v-36zm220 1v-35h-30v70h30v-35zm200-25c0-5-5-10-11-10h-10l6 10c3 6 8 10 11 10 2 0 4-4 4-10zm350 65v-15h80v30h-80v-15zm-29-51 1-19 5 13c3 7 2 16-1 19-3 4-6-2-5-13zm-431 16v-24l12 12 12 12-12 12-12 12v-24zm-328-5v-30l5 18c2 9 2 23 0 30l-5 12v-30zm220 0v-30l5 18c2 9 2 23 0 30l-5 12v-30zm458 465v-120h70v-170h220v-103l18 16 19 17h74l5-15 6-15 21 12 22 11-22-25c-13-13-23-29-23-35s-9-13-20-16-20-10-20-16 9-15 20-21 20-17 20-25c0-7 12-23 26-34l27-21h86l27 23 27 24 1 45 1 46-25 28-25 27 23-12 22-12v61h-130v210h160v-169l43-4 42-4-50-1-50-2v-260h103l-6 125-5 125h253v430h-960v-120zm493-367c-7-2-19-2-25 0l-13 5h50l-12-5zm50 0c-7-2-19-2-25 0l-13 5h50l-12-5zm-25-95-3-33h-20l-3 33-3 32h32l-3-32zm-16-3v-30l5 18c2 9 2 23 0 30l-5 12v-30zm313 99c-5-1-22-5-37-8l-28-6-15-30c-8-16-15-42-15-59v-30l24-27 23-28 49-7 49-6-38-2-38-1-29 15-28 15-6-15-5-15h-91v-170h-160v168l-26 17-27 17-9-16-9-16h-77l-13 16-12 15-9-15-9-16h-209v-170h-70V950h960v460h-37l-18-20c-10-11-22-20-26-20s3 11 16 25l25 24v89l-17 21-18 21-30 9c-16 4-34 7-40 5zm20-97v-27l-10-2-10-3-3 34-3 33 13-4 13-5v-26z"/></g>
<g fill="#afafaf" transform="matrix(.1 0 0 -.1 0 300)">
<path d="M505 2037c-3-7-4-60-3-118l3-104 32-3 32-3 3-82 3-82 83-5 84-5 19-24c10-13 19-32 19-43v-20l18 8c9 4 38 9 65 12l48 4 23-16 24-15 6 14 5 15h191l17-27 17-26 6 24 6 24 71 3 71 3 21-27 21-27v-59l11 4c7 2 24 22 40 43l29 40 12 50 12 50v93l-1 92-29 57-29 57-43 33-43 32-52 18-52 17-368 4-367 3-5-14zm569-243c22-22 29-57 24-115l-5-49-18-20-18-20h-87v220h89l15-16zm468 139 3-118 33-3 32-3v-169h220v-52l1-53 13 18 13 17h84l5-15 6-15 21 15 21 15h97l20-10 19-11v51h-120v210h170v-170h66l10-10 11-11 114 3 114 3v420l-478 3-478 2 3-117zm-997-433v-131l65 3 65 3 3 28 3 27h-31v38l45 6 45 7 15 22 15 21v65l-26 20-27 21H545v-130zm125 51c0-11-4-23-10-26l-10-6v51h20v-19zm835-51v-131l105 3 105 3 3 53 3 52h-81v-50h-30v48l15 6 15 5v32l-15 5-15 6v38h30v-40h80v100h-215v-130zm230 0v-131l40 3 40 3 5 30 6 30 17-32 18-33h79v60h-19l6 32 6 31-11-7-11-7 6-17 6-17-13 12-14 13 23 24 23 24-4 19-3 18-36 3-36 3-22-33-21-33v135h-85v-130zm420 0v-131l50 3 50 3 3 28 3 27h-21v200h-85v-130zm-1360 35-25-24v-43l1-43 12-16c19-25 52-39 91-39h35l26 23 26 22 6 41 5 40-27 32-27 32h-99l-24-25zm85-71v-36l-12 4-13 5-3 31-3 32h31v-36zm-18 6v-25l5 13c2 6 2 18 0 25l-5 12v-25zm111 74-6-17 11-18c7-10 12-32 12-49v-30h-21l3-27 3-28 53-3 54-3-7 65-7 66h34l-7-65-7-65h105l-7 46c-3 26-6 62-6 80v33l-16 15-15 16h-55l-12-12-12-12v24h-91l-6-16zm237-18v-34l48 4 47 4-25-11c-14-6-36-16-50-23l-25-12-3-26-3-25 15-15 14-15 82-1 83-1-7 46c-3 25-6 59-6 74v29l-20 20-20 20h-130v-34zm90-86c0-5-4-10-10-10-5 0-10 5-10 10 0 6 5 10 10 10 6 0 10-4 10-10zm678 100-25-19-7-31-6-31 14-34 14-33 23-12 22-12 46 5 45 5 18 22 18 22v89l-25 24-24 25h-88l-25-20zm82-75v-35h-30v70h30v-35zm-18 5v-25l5 13c2 6 2 18 0 25l-5 12v-25zm251 66-28-24v-94l28-24 28-24h70l28 15c34 17 41 33 41 86v40l-25 24-24 25h-90l-28-24zm85-68-3-31-12-5-13-4v72h31l-3-32zm-728 37v-15h80v30h-80v-15zm-568-40v-30l5 18c2 9 2 23 0 30l-5 12v-30zm108 9v-15l10 6 10 6-5 10c-9 14-15 11-15-7zm-487-7c-42-11-59-27-27-27h15l-3-37-3-38-57-3-58-3v-168l-32-3-33-3V955l303-3 303-2-3 117-3 118-67 3-68 3v84c0 46-3 90-6 98l-5 15-27-14-27-14h-87l-29 29-29 29v62l-7-1c-5-1-27-7-50-12zm918-13 1-19 5 13c3 7 2 16-1 19-3 4-6-2-5-13zm816-69-28-25h-80l-29 15-28 15-6-15-5-15h-81v-170h-170v169l-29 15-29 16-6-15-5-15h-87l-11 11-11 11-6-11-7-11h-209v-169l-32-3-33-3-3-118-3-117 478 2 478 3v450l-15 2-15 3-28-25z"/></g>
<g fill="#6b6b6b" transform="matrix(.1 0 0 -.1 0 300)">
<path d="M510 1936v-115l33-3 32-3 3-87 3-88h146l27-21 26-20v-48l37 15 36 16 36-7c20-4 44-14 54-22l17-16v31l88 5 87 4 27-18 26-18 5 13 5 13 46 7 45 7 40-11 41-11 10-19c5-10 10-33 10-51v-32l26 24c54 51 78 130 77 256l-1 71-12 39c-28 88-90 146-191 179l-54 18-362 4-363 4v-116zm569-141 14-14 5-55c5-64-2-98-24-120l-15-16h-89v233l47-7 48-6 14-15zm468 248c-4-3-7-55-7-115v-108h69l3-87 3-88 108-3 107-3v-52l1-52 13 18 13 17h93v-28l37 19c45 23 63 24 108 5l35-15v39h-120v230h170v-180h80v-20h230v430h-937l-6-7zM540 1600v-30h20v-140h-20v-50h140v50h-30v50h76l17 13 17 12 6 37 6 37-25 25-26 26H540v-30zm134-39c8-12-3-41-15-41h-9v50h9c6 0 12-4 15-9zm831-56v-125h215v100h-80v-50h-30v60h10c6 0 10 7 10 15s-4 15-10 15h-10v50h30v-40h80v100h-215v-125zm230 0v-125h85l1 33v32l16-32 17-33h86v40l-20 20c-11 11-20 27-20 35v16l15 5 15 6v58h-66l-19-32-20-33-3 68-3 67h-84v-125zm415 101c0-14 5-28 10-31l10-6v-139h-20v-50h110v50h-20v200h-90v-24zm-1336-58c-26-12-44-48-44-88v-29l24-28 24-28h101l22 22 22 22v94l-27 24-27 23-37-1c-20 0-47-5-58-11zm71-83v-30l-17-3-18-3v72l18-3 17-3v-30zm99 5v-90h97l-7 60-7 60h36l-7-60-7-60h102l-7 68-6 67-14 23-14 22h-28c-16 0-33-5-39-11l-11-11-6 11-7 11h-76l1-90zm239 83-13-5v-53l45 3 45 4v-22h-60l-20-20-20-20v-19c0-11 7-27 16-35l15-16h23c12 0 26 3 30 7 3 4 30 6 58 4l51-3-6 39c-4 21-7 51-7 66v28l-25 24-24 25-48-1c-26 0-54-3-60-6zm77-111c0-13-12-22-22-16l-8 5 5 10c8 11 25 12 25 1zm675 93-25-24v-40c0-53 7-69 41-86 49-26 106-15 136 24l12 16 1 43v43l-25 24-24 25h-92l-24-25zm85-70v-35h-30v70h30v-35zm-19-1 1-19 5 13c3 7 2 16-1 19-3 4-6-2-5-13zm257 76-25-19-7-31-6-31 15-35 14-34 28-11 28-11 35 6 35 5 23 26 22 26v29c0 16-5 40-11 53l-11 25-25 11c-13 6-39 11-57 11h-33l-25-20zm82-76v-35l-17 3-18 3-3 18c-2 10-1 25 2 33l5 14h31v-36zm-712 39c12-2 32-2 45 0l22 4h-90l23-4zm-587-39 1-19 5 13c3 7 2 16-1 19-3 4-6-2-5-13zm109 5v-10l10 6c6 3 10 8 10 11 0 2-4 4-10 4-5 0-10-5-10-11zm731-5 1-19 5 13c3 7 2 16-1 19-3 4-6-2-5-13zm-1231-3-35-6 18-7 17-7v-81H581l-3-87-3-88-32-3-33-3V950l298 2 297 3 3 113 3 112H970v89c0 49-3 96-6 105l-6 16-21-15-21-15h-87l-22 12c-29 15-44 36-51 71l-5 27-13-1c-7-1-29-4-48-8zm1763-65c-4-7-18-18-30-25l-22-11h-87l-22 16-22 15v-31h-90v-180h-170v175l-30 17-30 17v-29h-96l-12 12-12 12v-24h-220v-180h-71l3-112 3-113 473-3 472-2v460h-15c-7 0-18-6-22-14z"/></g>
<g fill="#434343" transform="matrix(.1 0 0 -.1 0 300)">
<path d="M510 1935v-115h70v-167l74-6 73-5 22-14 22-13 6-28 6-29 21 7c12 3 35 8 51 11l31 6 36-15 37-15 3 7 3 8 93 6 93 6 19-19 18-18 6 13 5 14 46 7 47 7 39-12 39-12 10-19c5-10 10-33 10-51v-32l20 18c12 10 29 33 40 50l20 32 15 78 15 78-10 69-10 69-19 37c-26 51-77 97-133 122l-47 20-73 10-73 9-312 1H510v-115zm572-145 18-22v-129l-10-19-10-19-38-11c-20-5-45-10-54-10h-18v243l47-6 47-5 18-22zm468 146v-115l33-3 32-3 3-82 3-82 102-3 102-3 5-50 5-50 8 13 8 12h99v-33l19 17 19 18 40 5 40 5 31-15 31-15v38h-120v230h170v-170h59l15-15 15-15h221v430h-940v-114zM540 1606c0-14 5-28 10-31l10-6v-139h-20v-50h140v50h-30v49l42 3 41 3 20 27 20 27-9 33-10 33-24 12-25 13H540v-24zm135-56v-23l-12-4-13-5v64l13-4 12-5v-23zm825 56c0-14 5-28 10-31l10-6v-139h-20v-50h220v100h-70v-50h-50v51l15 5c20 8 19 30-1 38l-15 6 3 22 3 23h40l3-22 3-23h70l-3 48-3 47-107 3-108 3v-25zm235-101v-125h85v65l20-32 20-33h80v39l-27 27-27 27 22 18 22 17v52h-59l-23-32-23-33-5 65-5 65-40 3-40 3v-126zm422 118c-4-3-7-15-7-25v-18h20v-150h-20v-50h103l-7 38c-3 20-6 76-6 125v87h-38c-21 0-42-3-45-7zm-1358-92-32-32 6-40 5-41 17-18c9-10 30-22 46-25l29-7 35 12 35 12 10 18c6 10 10 36 10 58v40l-18 22-18 22-46 5-47 5-32-31zm89-63-3-33-17-3-18-3v71h41l-3-32zm96 2v-90h96v50h-21l3 32 3 33 19 3 19 4-7-61-7-61h102l-7 63c-8 76-19 106-40 114l-17 6-31-11-31-12-3 10-4 10h-75l1-90zm239 83-13-5v-48h90v-20h-20c-10 0-31-5-45-12l-25-11-7-25-6-25 23-19 24-19 20 6c12 4 45 6 74 5l52-1v12c0 7-5 41-11 76l-11 63-21 15-21 15-46-1c-25 0-51-3-57-6zm81-118c-7-17-20-20-28-6-7 10 3 21 20 21h13l-5-15zm691 113c-11-6-26-18-32-26l-13-16v-83l26-24 26-24h90l24 28 24 28v29c0 16-5 40-11 53l-11 25-25 11c-30 14-72 14-98-1zm65-83v-35h-30l-6 24-6 25 7 10c3 6 13 11 21 11h14v-35zm253 85c-12-5-26-18-32-29-14-25-14-86-1-111l10-18 35-12 35-12 30 7 30 7 20 25 20 26v69l-29 29-29 29-34-1c-18 0-43-4-55-9zm67-86v-35l-17 3-18 3-3 18c-2 10-1 25 2 33l5 14h31v-36zm-712 39c12-2 32-2 45 0l22 4h-90l23-4zm-973-42-40-6 18-7 17-7v-81H580v-180h-70V950h590v230H970v83c0 45-3 92-6 104l-6 22-25-16-24-16-45 1h-45l-24 16-24 16-12 40c-7 22-15 39-18 39-3-1-24-5-46-8zm1759-72-21-20-38-9-39-9-40 14-41 14-3-9-4-10h-88v-180h-170v177l-27 12-27 13-4-11-4-11h-94l-12 12-12 12v-24h-209l-3-87-3-88-32-3-33-3V950h940v460h-8c-4 0-17-9-28-21z"/></g>
<g fill="#010101" transform="matrix(.1 0 0 -.1 0 300)">
<path d="M510 1931v-111h70v-170h121l33-14 33-14 12-30 13-31 25 10c35 13 80 11 113-6l28-15 6 16c3 9 6 69 6 135v119h77l27-21 26-20v-145l-16-22-15-22-17-1h-17l20-8c11-5 36-6 55-4l35 5 19-15 19-14 29 15 30 14 54-4 54-5 19-17 19-17 7-35 6-35 15 12c9 7 27 35 41 63l25 49 5 97 6 96-17 58-17 58-47 47-48 48-49 18-50 19-377 4-378 3v-110zm1040-1v-110h70v-169l108-3 107-3 5-45 5-45 8 13 8 12h80l5-15 6-15 28 15 29 15h77l22-16 22-15v40l-62 3-63 3v220l88 3 87 3v-171h69l6-10 6-10h229v410h-940v-110zM540 1600v-20h20v-150h-20v-50h130v50h-30v50h76l22 16 22 15v78l-16 15-15 16H540v-20zm135-50v-25l-17-3-18-3v62l18-3 17-3v-25zm825 50v-20h20v-150h-20v-50h210v100h-60v-50h-50v60h30v30h-30v60h50v-50h60v90h-210v-20zm230 1c0-11 5-23 10-26l10-6v-139h-20v-50h80v60h10c5 0 16-13 25-30l16-30h69v44l-22 23-21 23 21 23c12 13 22 31 22 40v17h-69l-17-29-18-30-8 5-8 5v119h-80v-19zm435-101v-120h88l-7 38c-3 20-6 74-6 120v82h-75v-120zm-1340 50c-26-10-41-28-49-61l-6-27 11-31 11-31 18-10c10-6 38-10 63-10h44l21 23 22 23v38c0 20-4 46-10 56l-10 18-31 11c-37 13-56 13-84 1zm63-83 3-37h-41v33c0 36 7 49 24 44l11-4 3-36zm200 79-28-15v19h-75l-1-85v-85h87l-7 56-7 56 14 9 13 8 13-11 13-10v-58h-20v-50h100v50h-20v109l-19 11c-25 13-31 13-63-4zm145 7-23-4v-51l34 6 33 6 17-6c27-10 18-21-23-28l-38-6-12-14-12-15 3-28 3-28 33-3 33-3 15 12 14 11v-22h80v50h-20v98l-15 12-15 12-43 3c-23 2-52 1-64-2zm69-125-12-12-12 12-13 13 15 9 15 9 9-9 10-10-12-12zm702 123c-12-5-29-20-38-33l-16-22v-63l21-27 20-26h97l22 18 21 17 6 41 5 40-23 28-24 27-35 4-35 5-21-9zm64-90-3-26h-40l-3 29-4 29 13 8 13 8 14-11 13-11-3-26zm246 85-31-14-7-17c-3-9-6-31-6-49v-33l21-27 20-26h97l22 18 23 19 1 46 1 46-21 21-20 21-35 4-34 5-31-14zm65-58c4-12 6-30 3-40l-4-18h-38v33c0 50 24 65 39 25zm-711 15c12-2 30-2 40 0l17 5-40-1h-40l23-4zm-968-42-35-6 18-8 18-7-3-37-3-38-57-3-58-3v-179h-70V960h590v220H970v175l-8 13-8 12-33-16-33-16-36 6c-20 3-48 14-62 24l-25 19-9 36c-5 21-12 36-15 36-3-1-22-4-41-8zm1740-82-25-20-37-5-36-6-31 15-31 15-6-9-5-9h-89v-181l-87 3-88 3-3 84-3 84-17 13-17 12-12-10-12-10-53 2c-29 1-101 1-160 1l-108-1v-180h-70V960h940v440l-12-1c-7 0-24-9-38-20z"/></g>
</g>
</svg>